<?xml version="1.0" encoding="utf-8"?>
<!-- Generator: Adobe Illustrator 17.1.0, SVG Export Plug-In . SVG Version: 6.00 Build 0)  -->
<!DOCTYPE svg PUBLIC "-//W3C//DTD SVG 1.1//EN" "http://www.w3.org/Graphics/SVG/1.1/DTD/svg11.dtd">
<svg version="1.1" id="Layer_1" xmlns="http://www.w3.org/2000/svg" xmlns:xlink="http://www.w3.org/1999/xlink" x="0px" y="0px"
	 viewBox="0 0 300 80.7" enable-background="new 0 0 300 80.7" xml:space="preserve">
<g>
	<path fill-rule="evenodd" clip-rule="evenodd" fill="#FFFFFF" d="M45,42.9c0-0.9-0.5-1.7-1.2-2.1L23.7,29.2
		c-0.3-0.2-0.7-0.3-1.1-0.3c0,0-0.2,0-0.2,0c-0.4,0-0.8,0.1-1.1,0.3L1.2,40.8C0.5,41.2,0,42,0,42.9L0,74c0,0.4,0.2,0.8,0.6,1
		c0.4,0.2,0.8,0.2,1.2,0l11.9-6.8c0.8-0.4,1.2-1.2,1.2-2.1V51.6c0-0.9,0.5-1.7,1.2-2.1l5.1-2.9c0.4-0.2,0.8-0.3,1.2-0.3
		c0.4,0,0.8,0.1,1.2,0.3l5.1,2.9c0.8,0.4,1.2,1.2,1.2,2.1v14.5c0,0.9,0.5,1.7,1.2,2.1l11.9,6.8c0.4,0.2,0.8,0.2,1.2,0
		c0.4-0.2,0.6-0.6,0.6-1L45,42.9z"/>
	<path fill-rule="evenodd" clip-rule="evenodd" fill="#FFFFFF" d="M152.2,0.2c-0.4-0.2-0.8-0.2-1.2,0c-0.4,0.2-0.6,0.6-0.6,1V32
		c0,0.3-0.2,0.6-0.4,0.7c-0.3,0.2-0.6,0.2-0.8,0l-5-2.9c-0.7-0.4-1.7-0.4-2.4,0l-20.1,11.6c-0.8,0.4-1.2,1.2-1.2,2.1v23.2
		c0,0.9,0.5,1.7,1.2,2.1l20.1,11.6c0.8,0.4,1.7,0.4,2.4,0l20.1-11.6c0.7-0.4,1.2-1.2,1.2-2.1V8.9c0-0.9-0.5-1.7-1.2-2.1L152.2,0.2z
		 M150.3,59.1c0,0.2-0.1,0.4-0.3,0.5l-6.9,4c-0.2,0.1-0.4,0.1-0.6,0l-6.9-4c-0.2-0.1-0.3-0.3-0.3-0.5v-8c0-0.2,0.1-0.4,0.3-0.5
		l6.9-4c0.2-0.1,0.4-0.1,0.6,0l6.9,4c0.2,0.1,0.3,0.3,0.3,0.5V59.1z"/>
	<path fill-rule="evenodd" clip-rule="evenodd" fill="#FFFFFF" d="M224,50.9c0.7-0.4,1.2-1.2,1.2-2.1v-5.6c0-0.9-0.5-1.7-1.2-2.1
		L204,29.5c-0.8-0.4-1.7-0.4-2.4,0l-20.1,11.6c-0.7,0.4-1.2,1.2-1.2,2.1v23.2c0,0.9,0.5,1.7,1.2,2.1l19.9,11.4
		c0.7,0.4,1.6,0.4,2.4,0l12.1-6.7c0.4-0.2,0.6-0.6,0.6-1.1c0-0.4-0.2-0.8-0.6-1.1l-20.2-11.6c-0.4-0.2-0.6-0.6-0.6-1.1v-7.3
		c0-0.4,0.2-0.8,0.6-1.1l6.3-3.6c0.4-0.2,0.8-0.2,1.2,0l6.3,3.6c0.4,0.2,0.6,0.6,0.6,1.1v5.7c0,0.4,0.2,0.8,0.6,1
		c0.4,0.2,0.8,0.2,1.2,0L224,50.9z"/>
	<path fill-rule="evenodd" clip-rule="evenodd" fill="#80BD01" d="M81.5,29.4c0.7-0.4,1.7-0.4,2.4,0L104,41c0.8,0.4,1.2,1.2,1.2,2.1
		v23.2c0,0.9-0.5,1.7-1.2,2.1L83.9,80c-0.8,0.4-1.7,0.4-2.4,0L61.4,68.4c-0.7-0.4-1.2-1.2-1.2-2.1V43.1c0-0.9,0.5-1.7,1.2-2.1
		L81.5,29.4z"/>
	<path fill="#80BD01" d="M263,80.3c-0.7,0-1.4-0.2-2-0.5l-6.3-3.7c-0.9-0.5-0.5-0.7-0.2-0.8c1.3-0.4,1.5-0.5,2.9-1.3
		c0.1-0.1,0.3,0,0.5,0l4.9,2.9c0.2,0.1,0.4,0.1,0.6,0l18.9-10.9c0.2-0.1,0.3-0.3,0.3-0.5V43.6c0-0.2-0.1-0.4-0.3-0.5l-18.9-10.9
		c-0.2-0.1-0.4-0.1-0.6,0L243.8,43c-0.2,0.1-0.3,0.3-0.3,0.5v21.8c0,0.2,0.1,0.4,0.3,0.5l5.2,3c2.8,1.4,4.5-0.2,4.5-1.9V45.4
		c0-0.3,0.2-0.5,0.6-0.5h2.4c0.3,0,0.5,0.2,0.5,0.5V67c0,3.8-2,5.9-5.6,5.9c-1.1,0-2,0-4.4-1.2l-5-2.9c-1.2-0.7-2-2-2-3.5V43.6
		c0-1.4,0.8-2.7,2-3.5L261,29.2c1.2-0.7,2.8-0.7,4,0l18.9,10.9c1.2,0.7,2,2,2,3.5v21.8c0,1.4-0.8,2.7-2,3.5L265,79.8
		C264.3,80.1,263.7,80.3,263,80.3z"/>
	<path fill="#80BD01" d="M268.8,65.3c-8.3,0-10-3.8-10-7c0-0.3,0.2-0.5,0.5-0.5h2.4c0.3,0,0.5,0.2,0.5,0.5c0.4,2.5,1.5,3.7,6.5,3.7
		c4,0,5.7-0.9,5.7-3c0-1.2-0.5-2.1-6.7-2.7c-5.2-0.5-8.4-1.7-8.4-5.8c0-3.8,3.2-6.1,8.6-6.1c6.1,0,9.1,2.1,9.4,6.6
		c0,0.2,0,0.3-0.1,0.4c-0.1,0.1-0.2,0.2-0.4,0.2h-2.5c-0.3,0-0.5-0.2-0.5-0.4c-0.6-2.6-2-3.5-5.9-3.5c-4.4,0-4.9,1.5-4.9,2.7
		c0,1.4,0.6,1.8,6.5,2.6c5.8,0.8,8.6,1.9,8.6,5.9C278.2,62.9,274.8,65.3,268.8,65.3z"/>
	<g>
		<path fill="#80BD01" d="M294.9,29.2v0.6h-1.6v4.2h-0.6v-4.2h-1.6v-0.6H294.9z"/>
		<path fill="#80BD01" d="M295.5,29.2h0.9l1.4,4l1.3-4h0.9v4.7h-0.6v-2.8c0-0.1,0-0.3,0-0.5c0-0.2,0-0.5,0-0.7l-1.3,4h-0.6l-1.4-4
			v0.1c0,0.1,0,0.3,0,0.5c0,0.2,0,0.4,0,0.5v2.8h-0.6V29.2z"/>
	</g>
	<path fill-rule="evenodd" clip-rule="evenodd" fill="#80BD01" d="M202.5,49.8c0.1-0.1,0.3-0.1,0.5,0l3.9,2.2
		c0.1,0.1,0.2,0.2,0.2,0.4v4.4c0,0.2-0.1,0.3-0.2,0.4l-3.9,2.2c-0.1,0.1-0.3,0.1-0.5,0l-3.8-2.2c-0.1-0.1-0.2-0.2-0.2-0.4v-4.4
		c0-0.2,0.1-0.3,0.2-0.4L202.5,49.8z"/>
</g>
</svg>
